<svg width="307" height="222" viewBox="0 0 307 222" fill="none" xmlns="http://www.w3.org/2000/svg">
<path d="M120.776 197.948C121.819 198.007 122.395 196.83 121.606 196.144L121.528 195.861C121.538 195.838 121.549 195.815 121.559 195.793C122.613 193.508 126.186 193.524 127.232 195.812C128.159 197.842 129.34 199.877 129.631 202.024C129.762 202.972 129.703 203.937 129.472 204.867C131.646 200.552 132.79 195.839 132.79 191.1C132.79 189.909 132.718 188.718 132.571 187.531C132.451 186.559 132.284 185.593 132.069 184.637C130.906 179.465 128.386 174.539 124.752 170.425C123.005 169.557 121.548 168.2 120.668 166.574C120.352 165.988 120.105 165.357 119.987 164.714C120.186 164.738 120.737 161.986 120.587 161.817C120.864 161.435 121.36 161.245 121.663 160.872C123.167 159.018 125.241 159.342 126.323 161.861C128.635 162.922 128.658 164.681 127.239 166.373C126.336 167.449 126.212 168.905 125.42 170.057C125.502 170.152 125.587 170.244 125.668 170.339C127.162 172.081 128.455 173.953 129.544 175.919C129.236 173.734 129.691 171.1 130.466 169.403C131.348 167.469 133.001 165.84 134.457 164.168C136.206 162.16 139.793 163.036 140.101 165.582C140.104 165.607 140.107 165.631 140.11 165.656C139.893 165.767 139.682 165.884 139.475 166.009C138.294 166.718 138.702 168.382 140.101 168.578L140.133 168.582C140.054 169.29 139.921 169.992 139.725 170.682C141.593 177.248 137.56 179.639 131.802 179.746C131.675 179.806 131.551 179.865 131.424 179.921C132.007 181.414 132.473 182.945 132.819 184.497C133.128 185.869 133.344 187.255 133.464 188.647C133.614 190.404 133.601 192.169 133.438 193.923L133.448 193.86C133.862 191.929 135.016 190.125 136.691 188.875C139.186 187.012 142.712 186.326 145.405 184.828C146.701 184.108 148.361 185.039 148.135 186.405L148.124 186.47C147.723 186.618 147.332 186.79 146.954 186.983C146.738 187.093 146.526 187.211 146.319 187.336C145.138 188.045 145.546 189.708 146.945 189.905L146.977 189.909C147 189.912 147.019 189.915 147.042 189.918C146.354 191.402 145.396 192.779 144.197 193.967C143.029 199.698 138.012 200.242 132.646 198.573H132.643C132.056 200.895 131.199 203.164 130.097 205.327H121.004C120.972 205.235 120.942 205.14 120.913 205.048C121.754 205.096 122.601 205.051 123.429 204.912C122.754 204.16 122.08 203.401 121.405 202.649C121.389 202.634 121.376 202.619 121.363 202.604C121.02 202.219 120.675 201.837 120.333 201.452L120.333 201.452C120.311 200.27 120.467 199.091 120.776 197.948Z" fill="#F2F2F2"/>
<path d="M0 205.489C0 205.792 0.267459 206.035 0.600518 206.035H204.105C204.438 206.035 204.706 205.792 204.706 205.489C204.706 205.186 204.438 204.943 204.105 204.943H0.600518C0.267459 204.943 0 205.186 0 205.489Z" fill="#CCCCCC"/>
<path d="M274.883 205.913H170.655C165.167 205.913 160.702 201.855 160.702 196.867V9.04576C160.702 4.058 165.167 0 170.655 0H274.883C280.371 0 284.837 4.058 284.837 9.04576V196.867C284.837 201.855 280.371 205.913 274.883 205.913ZM170.655 0.917205C165.716 0.917205 161.711 4.55638 161.711 9.04553V196.867C161.711 201.356 165.716 204.995 170.655 204.995H274.883C279.823 204.995 283.827 201.356 283.827 196.867V69.1136C283.827 31.4498 250.232 0.917205 208.789 0.917205H170.655Z" fill="#E6E6E6"/>
<path d="M190.306 92.6926C196.995 92.6926 202.417 87.7649 202.417 81.6862C202.417 75.6074 196.995 70.6797 190.306 70.6797C183.617 70.6797 178.195 75.6074 178.195 81.6862C178.195 87.7649 183.617 92.6926 190.306 92.6926Z" fill="#E6E6E6"/>
<path d="M255.233 92.6926C261.921 92.6926 267.343 87.7649 267.343 81.6862C267.343 75.6074 261.921 70.6797 255.233 70.6797C248.544 70.6797 243.122 75.6074 243.122 81.6862C243.122 87.7649 248.544 92.6926 255.233 92.6926Z" fill="#E6E6E6"/>
<path d="M222.769 92.6926C229.457 92.6926 234.88 87.7649 234.88 81.6862C234.88 75.6074 229.457 70.6797 222.769 70.6797C216.08 70.6797 210.658 75.6074 210.658 81.6862C210.658 87.7649 216.08 92.6926 222.769 92.6926Z" fill="#E6E6E6"/>
<path d="M190.306 124.335C196.995 124.335 202.417 119.407 202.417 113.329C202.417 107.25 196.995 102.322 190.306 102.322C183.617 102.322 178.195 107.25 178.195 113.329C178.195 119.407 183.617 124.335 190.306 124.335Z" fill="#E6E6E6"/>
<path d="M255.233 124.335C261.921 124.335 267.343 119.407 267.343 113.329C267.343 107.25 261.921 102.322 255.233 102.322C248.544 102.322 243.122 107.25 243.122 113.329C243.122 119.407 248.544 124.335 255.233 124.335Z" fill="#E6E6E6"/>
<path d="M222.769 124.335C229.457 124.335 234.88 119.407 234.88 113.329C234.88 107.25 229.457 102.322 222.769 102.322C216.08 102.322 210.658 107.25 210.658 113.329C210.658 119.407 216.08 124.335 222.769 124.335Z" fill="#E6E6E6"/>
<path d="M190.306 155.978C196.995 155.978 202.417 151.05 202.417 144.971C202.417 138.893 196.995 133.965 190.306 133.965C183.617 133.965 178.195 138.893 178.195 144.971C178.195 151.05 183.617 155.978 190.306 155.978Z" fill="#E6E6E6"/>
<path d="M254.986 187.568C261.674 187.568 267.096 182.64 267.096 176.561C267.096 170.482 261.674 165.555 254.986 165.555C248.297 165.555 242.875 170.482 242.875 176.561C242.875 182.64 248.297 187.568 254.986 187.568Z" fill="#E6E6E6"/>
<path d="M206.795 187.568C222.541 187.568 235.305 182.64 235.305 176.561C235.305 170.482 222.541 165.555 206.795 165.555C191.049 165.555 178.284 170.482 178.284 176.561C178.284 182.64 191.049 187.568 206.795 187.568Z" fill="#E6E6E6"/>
<path d="M255.233 155.978C261.921 155.978 267.343 151.05 267.343 144.971C267.343 138.893 261.921 133.965 255.233 133.965C248.544 133.965 243.122 138.893 243.122 144.971C243.122 151.05 248.544 155.978 255.233 155.978Z" fill="#E6E6E6"/>
<path d="M222.769 155.978C229.457 155.978 234.88 151.05 234.88 144.971C234.88 138.893 229.457 133.965 222.769 133.965C216.08 133.965 210.658 138.893 210.658 144.971C210.658 151.05 216.08 155.978 222.769 155.978Z" fill="#2884BA"/>
<path d="M225.15 12.8418H109.325C105.89 12.8418 103.098 15.3799 103.098 18.5011V57.1702C103.098 60.2914 105.89 62.8295 109.325 62.8295H225.15C228.584 62.8295 231.377 60.2914 231.377 57.1702V18.5011C231.377 15.3799 228.584 12.8418 225.15 12.8418Z" fill="white"/>
<path d="M225.15 12.8418H109.325C105.89 12.8418 103.098 15.3799 103.098 18.5011V57.1702C103.098 60.2914 105.89 62.8295 109.325 62.8295H225.15C228.584 62.8295 231.377 60.2914 231.377 57.1702V18.5011C231.377 15.3799 228.584 12.8418 225.15 12.8418ZM230.722 57.1702C230.722 59.9641 228.224 62.2344 225.15 62.2344H109.325C106.25 62.2344 103.752 59.9641 103.752 57.1702V18.5011C103.752 15.7072 106.25 13.4369 109.325 13.4369H225.15C228.224 13.4369 230.722 15.7072 230.722 18.5011V57.1702Z" fill="#3F3D56"/>
<path d="M218.707 36.2305H115.766C114.791 36.2305 114 36.9491 114 37.8356C114 38.7221 114.791 39.4407 115.766 39.4407H218.707C219.682 39.4407 220.473 38.7221 220.473 37.8356C220.473 36.9491 219.682 36.2305 218.707 36.2305Z" fill="#2884BA"/>
<path d="M34.2885 82.7404L33.2568 88.3238L42.4058 108.55L47.3144 106.256L42.5368 87.3289L41.8501 80.1055L34.2885 82.7404Z" fill="#A0616A"/>
<path d="M44.3882 51.3306C44.3882 51.3306 39.5982 49.2218 35.8812 56.3472C32.1643 63.4726 32.6246 79.1005 32.6246 79.1005C32.6246 79.1005 31.2711 80.2717 32.1303 81.0917C32.9894 81.9118 33.7904 83.2131 32.914 84.7132C32.4521 85.5039 31.383 87.0506 33.1337 87.49C34.8843 87.9294 43.0735 85.8537 43.0735 85.8537C43.0735 85.8537 46.1356 84.6069 44.3957 83.7673C42.6559 82.9277 45.1063 77.8489 45.1063 77.8489L47.131 63.1775L44.3882 51.3306Z" fill="#80BBD9"/>
<path d="M48.1496 116.277C50.0723 115.741 50.8248 112.92 49.8304 109.977C48.8361 107.034 46.4713 105.084 44.5487 105.62C42.626 106.157 41.8735 108.978 42.8679 111.92C43.8622 114.863 46.227 116.814 48.1496 116.277Z" fill="#A0616A"/>
<path d="M93.4936 202.966L98.0786 201.847L95.5142 185.242L88.7471 186.893L93.4936 202.966Z" fill="#A0616A"/>
<path d="M109.175 199.041C109.382 199.225 109.666 199.912 109.741 200.166C109.971 200.947 109.462 201.75 108.602 201.96L94.4026 205.423C93.8163 205.566 93.2134 205.25 93.0561 204.717L92.8974 204.179C92.8974 204.179 91.7182 202.736 92.5768 200.393C92.5768 200.393 94.8344 201.513 96.7996 198.417L97.2066 196.92L104.065 199.332L107.348 198.913C108.066 198.821 108.656 198.581 109.175 199.041Z" fill="#024C77"/>
<path d="M48.5488 202.869L53.2962 202.868L55.5545 186.227L48.5479 186.227L48.5488 202.869Z" fill="#A0616A"/>
<path d="M64.8134 202.77C64.9612 202.996 65.0392 203.727 65.0392 203.99C65.0392 204.798 64.3178 205.454 63.428 205.454H48.726C48.1189 205.454 47.6268 205.007 47.6268 204.455V203.899C47.6268 203.899 46.8995 202.227 48.3969 200.166C48.3969 200.166 50.2579 201.78 53.0388 199.252L53.8588 197.902L59.7948 201.848L63.0851 202.216C63.8049 202.296 64.4431 202.203 64.8134 202.77Z" fill="#024C77"/>
<path d="M80.1431 103.74L92.6265 152.642L98.653 192.155L89.1828 193.328L62.9246 126.039L56.8981 193.328L46.1365 194.111C46.1365 194.111 37.5273 114.303 41.4014 104.523L80.1431 103.74Z" fill="#024C77"/>
<path d="M95.0025 45.9137L99.3097 41.8235L104.256 20.422L98.7777 19.8105L91.0198 37.9046L87.1191 44.2291L95.0025 45.9137Z" fill="#A0616A"/>
<path d="M67.2188 66.7305C67.2188 66.7305 71.2498 73.4855 78.7316 69.492C86.2134 65.4986 94.1263 49.7759 94.1263 49.7759C94.1263 49.7759 95.7063 45.7791 97.3591 44.9863C98.2302 44.5685 100.472 44.1179 99.2957 42.86C98.1197 41.6021 89.6628 38.8521 89.6628 38.8521C89.6628 38.8521 86.3592 38.3185 87.2787 39.9019C88.1981 41.4852 85.1783 40.5044 85.4832 42.1801C85.788 43.8558 83.0298 44.4333 83.0298 44.4333L67.2188 66.7305Z" fill="#80BBD9"/>
<path d="M105.96 17.3993C106.958 14.4575 106.209 11.636 104.287 11.0973C102.365 10.5587 99.998 12.5069 98.9998 15.4487C98.0016 18.3906 98.7504 21.2121 100.672 21.7507C102.594 22.2894 104.962 20.3412 105.96 17.3993Z" fill="#A0616A"/>
<path d="M67.7543 43.3281H55.9684L55.4915 46.7053C55.4915 46.7053 40.6274 50.4202 40.999 52.4465C41.3706 54.4729 43.6002 88.2448 43.6002 88.2448L41.7422 105.131C41.7422 105.131 75.1863 117.964 80.3887 102.767L77.7875 85.2053C77.7875 85.2053 84.1047 55.1483 82.6183 53.7974C81.1319 52.4465 68.8691 47.043 68.8691 47.043L67.7543 43.3281Z" fill="#80BBD9"/>
<path d="M60.9078 43.3689C66.7502 43.3689 71.4865 39.0645 71.4865 33.7548C71.4865 28.445 66.7502 24.1406 60.9078 24.1406C55.0653 24.1406 50.3291 28.445 50.3291 33.7548C50.3291 39.0645 55.0653 43.3689 60.9078 43.3689Z" fill="#A0616A"/>
<path d="M68.7432 29.8005C70.0948 29.6967 71.4464 29.5928 72.798 29.489C72.3334 29.2953 71.8496 29.0881 71.54 28.7184C71.2305 28.3487 71.1664 27.7646 71.5404 27.4479C71.9773 27.0778 72.701 27.2739 73.1786 27.5999C72.9156 26.3521 72.0961 25.2088 70.9464 24.486C69.5421 23.603 66.0678 24.6559 64.3747 24.4532C62.4213 24.2193 62.1774 22.7056 60.2239 22.4717C59.4877 22.3836 58.659 22.3171 58.0801 22.7399C57.4379 23.2087 57.3658 24.0951 56.7993 24.6385C55.9903 25.4143 54.6038 25.1855 53.4526 25.4037C51.8221 25.713 50.5929 27.0123 50.0252 28.4355C49.4575 29.8587 49.4366 31.4066 49.4222 32.9205C49.406 34.6169 49.4001 36.5809 50.7502 37.7526C51.5727 38.4665 53.8133 40.9157 54.0555 41.9257C54.2275 42.6429 61.238 43.5165 62.7574 43.4768L67.9362 41.9257C68.4452 39.8888 67.6033 35.8595 66.3932 34.0838C66.7917 34.5622 68.6345 36.0023 68.9162 35.4596C69.198 34.917 69.0702 33.2163 69.4209 32.708C69.8635 32.0665 67.913 29.8643 68.7432 29.8005Z" fill="#024C77"/>
</svg>
