<svg width="120" height="192" viewBox="0 0 120 192" fill="none" xmlns="http://www.w3.org/2000/svg">
<path d="M17.6302 191.746L17.6652 191.559C18.2356 188.414 18.1143 185.182 17.3096 182.088C16.5049 178.995 15.0361 176.113 13.0055 173.645C11.8554 172.269 10.5367 171.043 9.08047 169.997L8.94165 169.897L8.88091 170.057C8.15658 171.967 7.24232 173.879 6.82569 174.726L6.54452 168.406L6.38406 168.321C5.649 167.927 4.81285 167.763 3.9833 167.848C3.15376 167.934 2.36885 168.266 1.72973 168.802C1.06861 169.333 0.581738 170.05 0.331793 170.86C0.0818462 171.671 0.0802879 172.538 0.327341 173.349C0.545847 174.092 0.752182 174.862 0.951847 175.607C1.63761 178.166 2.34668 180.813 3.72088 183.041C4.77764 184.718 6.19557 186.138 7.87112 187.196C9.54667 188.255 11.4375 188.926 13.4056 189.16L17.6302 191.746Z" fill="#F2F2F2"/>
<path d="M0.000160217 191.78C6.86646e-05 191.809 0.00580597 191.838 0.0170059 191.864C0.0282135 191.891 0.0446548 191.915 0.0654297 191.936C0.0862045 191.956 0.110886 191.972 0.138046 191.983C0.165199 191.994 0.194298 192 0.223679 192H119.734C119.793 192 119.85 191.977 119.892 191.936C119.933 191.894 119.957 191.839 119.957 191.78C119.957 191.722 119.933 191.666 119.892 191.625C119.85 191.584 119.793 191.561 119.734 191.561H0.223679C0.194305 191.56 0.165199 191.566 0.138046 191.577C0.110886 191.588 0.0862045 191.604 0.0654297 191.625C0.0446625 191.645 0.0282135 191.669 0.0170059 191.696C0.00580597 191.723 6.86646e-05 191.751 0.000160217 191.78Z" fill="white"/>
<path d="M63.562 57.8806L71.5647 56.7344C74.2713 61.2602 75.2331 73.3064 75.2331 73.3064L83.0651 91.9215C83.5838 92.2738 84.0005 92.7565 84.2733 93.321C84.5461 93.8856 84.6654 94.512 84.6192 95.1373C84.5729 95.7626 84.3628 96.3647 84.0099 96.883C83.6569 97.4012 83.1737 97.8174 82.6088 98.0895C82.044 98.3617 81.4174 98.4802 80.7921 98.4332C80.1669 98.3862 79.5651 98.1753 79.0472 97.8218C78.5294 97.4683 78.1138 96.9846 77.8423 96.4194C77.5708 95.8542 77.4531 95.2274 77.5008 94.6022L64.6416 72.935L63.562 57.8806Z" fill="#FFB8B8"/>
<path d="M64.8357 35.6642C63.597 35.856 62.4158 36.3185 61.3762 37.0187C60.3366 37.7189 59.4641 38.6396 58.8207 39.7154C58.1774 40.7911 57.779 41.9954 57.654 43.2426C57.529 44.4898 57.6804 45.7492 58.0974 46.9312L59.7957 51.7448C59.7957 51.7448 60.7201 66.2384 64.2457 70.3296L75.064 69.3503C75.064 69.3503 73.086 62.038 74.6046 58.5001C75.5345 56.3334 75.4829 48.8499 74.5666 42.7623C74.3948 41.6568 74.0067 40.596 73.4244 39.6406C72.8422 38.6853 72.0773 37.8542 71.1734 37.1949C70.2695 36.5356 69.2445 36.061 68.157 35.7983C67.0695 35.5357 65.9409 35.4901 64.8357 35.6642Z" fill="#E6E6E6"/>
<path d="M38.388 186.052L43.2087 186.051L45.502 167.457L38.3871 167.457L38.388 186.052Z" fill="#FFB6B6"/>
<path d="M38.2179 191.081L53.042 191.08V190.893C53.0419 189.362 52.4339 187.895 51.3519 186.813C50.2698 185.731 48.8023 185.123 47.272 185.123L44.5639 183.068L39.5117 185.123L38.2176 185.123L38.2179 191.081Z" fill="#024C77"/>
<path d="M59.3466 163.008L63.7995 164.854L73.041 148.557L66.4684 145.832L59.3466 163.008Z" fill="#FFB6B6"/>
<path d="M57.2624 167.587L70.9559 173.265L71.0277 173.092C71.6139 171.679 71.6145 170.09 71.0295 168.676C70.4445 167.262 69.3217 166.138 67.9082 165.552L66.1936 162.617L60.7397 162.58L59.5444 162.084L57.2624 167.587Z" fill="#024C77"/>
<path d="M32.876 80.2773L67.0872 83.8516L71.6635 99.2649L87.5117 124.734L70.0131 156.884L63.8506 151.352L69.7659 125.391L52.1102 106.33L48.7624 104.941L46.1048 175.671L36.2754 175.832L31.9739 97.7864C29.9072 90.8918 30.5293 85.1991 32.876 80.2773Z" fill="#024C77"/>
<path d="M45.4194 31.483L51.0347 25.1602L59.9076 26.146L65.5884 34.0961C68.6121 34.7912 71.2545 36.6188 72.9718 39.2029C74.6891 41.7869 75.3508 44.9309 74.8206 47.9879C72.6162 60.6816 65.1246 72.9931 67.5983 79.2562C71.3533 88.7635 71.5824 92.641 62.5938 91.3081C53.6053 89.9752 23.4918 86.9024 29.3301 81.064C35.1684 75.2257 36.4508 65.4696 36.4508 65.4696L36.685 43.1494C36.4367 41.8032 36.4698 40.4202 36.782 39.0874C37.0943 37.7546 37.6791 36.5008 38.4995 35.405C39.3199 34.3092 40.3582 33.3951 41.5491 32.7201C42.7401 32.0451 44.0578 31.6239 45.4194 31.483Z" fill="#E6E6E6"/>
<path d="M56.3928 23.5425C50.9531 23.5425 46.5434 19.1328 46.5434 13.6931C46.5434 8.25348 50.9531 3.84375 56.3928 3.84375C61.8325 3.84375 66.2422 8.25348 66.2422 13.6931C66.2422 19.1328 61.8325 23.5425 56.3928 23.5425Z" fill="#FFB8B8"/>
<path d="M44.2561 13.1086C44.6959 15.1042 45.4893 17.005 46.5987 18.7211C46.8932 19.3062 47.3332 19.8058 47.8764 20.1719C48.1515 20.3484 48.4797 20.4228 48.804 20.3823C49.1282 20.3418 49.428 20.1888 49.6512 19.95L49.8908 19.7548C49.4209 19.4653 49.0013 19.1011 48.6484 18.6767C48.4738 18.4637 48.3525 18.2121 48.2946 17.9428C48.2367 17.6735 48.2439 17.3942 48.3157 17.1283C48.4008 16.866 48.5842 16.6469 48.8274 16.517C49.0707 16.3871 49.3548 16.3565 49.6201 16.4317C50.1969 16.658 50.5474 17.4921 51.1508 17.3634C51.6388 17.2569 51.7409 16.6136 51.7409 16.1078C51.7232 13.4635 53.0009 9.70557 53.9903 9.82093C54.9899 9.87557 55.9908 9.74161 56.9408 9.42605C57.892 9.10994 58.8956 8.98185 59.8957 9.0489C59.9666 9.05779 60.0377 9.07111 60.1131 9.08441C60.2734 8.58201 60.4939 8.10082 60.7697 7.65134C60.7386 8.19392 60.7654 8.73828 60.8496 9.27519C61.6454 9.60319 62.4677 9.86293 63.3075 10.0516C64.2215 10.1803 66.2314 12.9133 66.3245 12.6338C66.4849 12.1314 66.7054 11.6502 66.9812 11.2007C66.9501 11.7433 66.9768 12.2877 67.061 12.8246C67.0655 12.8468 67.0655 12.8645 67.0699 12.8867C67.5136 12.2966 67.7842 11.5779 67.6334 12.128C69.1197 8.76497 68.5429 6.3558 66.2047 3.5207C65.749 2.9111 65.146 2.42717 64.4522 2.11423C64.1048 1.96161 63.7239 1.90103 63.3462 1.93833C62.9685 1.97563 62.6068 2.10956 62.296 2.32721C61.3423 1.45287 60.1722 0.849478 58.9068 0.579557C57.6415 0.309637 56.327 0.383014 55.0995 0.792085C52.6638 1.63952 50.787 2.13644 50.4143 4.69202C48.4 4.36812 46.328 5.51282 45.2188 7.22095C44.1141 8.93357 43.8878 11.1076 44.2561 13.1086Z" fill="#024C77"/>
<path d="M52.2437 94.9176H55.5127V69.7578H52.8541C52.7253 69.7578 52.6018 69.8088 52.5105 69.8996C52.4192 69.9904 52.3676 70.1137 52.367 70.2425L52.2437 94.9176Z" fill="#3F3D56"/>
<path d="M55.2071 95.0509H90.3125V77.1328H55.2071V95.0509Z" fill="white"/>
<path d="M69.0441 94.9841H90.2461V77.1992H55.2739V81.2139C55.278 84.8647 56.7301 88.3648 59.3117 90.9463C61.8932 93.5278 65.3933 94.98 69.0441 94.9841Z" fill="#1C9F59"/>
<path d="M52.7764 70.4725C52.7941 70.5058 52.8078 70.5412 52.8172 70.5777L54.0278 75.2437L55.3408 77.7304H90.1797V77.1111L88.1962 75.2437L85.8823 70.8179C85.7802 70.6225 85.6461 70.4456 85.4855 70.2945C85.1191 69.9498 84.635 69.7578 84.132 69.7578H53.2072C53.1232 69.7578 53.0407 69.7795 52.9676 69.8208C52.8945 69.8621 52.8333 69.9216 52.7899 69.9935C52.7466 70.0654 52.7226 70.1473 52.7202 70.2312C52.7178 70.3151 52.7372 70.3982 52.7764 70.4725Z" fill="#3F3D56"/>
<path d="M55.2071 95.0509H90.3125V77.1328H55.2071V95.0509ZM90.046 94.7844H55.4736V77.3993H90.046V94.7844Z" fill="#3F3D56"/>
<path d="M53.3806 72.8574L54.0269 75.2421H88.1953L87.0915 73.2573L53.3806 72.8574Z" fill="#1C9F59"/>
<path d="M83.4214 86.5215H89.0176V86.8312H83.4214V86.5215Z" fill="white"/>
<path d="M83.4214 87.6055H89.0176V87.9151H83.4214V87.6055Z" fill="white"/>
<path d="M83.4214 88.6895H89.0176V88.9991H83.4214V88.6895Z" fill="white"/>
<path d="M86.8504 83.0707C85.7387 83.0707 84.8375 82.1695 84.8375 81.0578C84.8375 79.9461 85.7387 79.0449 86.8504 79.0449C87.9621 79.0449 88.8633 79.9461 88.8633 81.0578C88.8633 82.1695 87.9621 83.0707 86.8504 83.0707Z" fill="white"/>
<path d="M38.5864 55.5818L46.5892 54.4355C49.2957 58.9613 50.2576 71.0076 50.2576 71.0076L58.0895 89.6226C58.6082 89.9749 59.0249 90.4576 59.2977 91.0222C59.5706 91.5867 59.6898 92.2132 59.6436 92.8385C59.5973 93.4638 59.3872 94.0659 59.0343 94.5841C58.6814 95.1024 58.1981 95.5186 57.6332 95.7907C57.0684 96.0629 56.4418 96.1814 55.8165 96.1344C55.1913 96.0874 54.5894 95.8765 54.0716 95.523C53.5538 95.1694 53.1382 94.6857 52.8667 94.1205C52.5953 93.5553 52.4775 92.9286 52.5252 92.3034L39.666 70.6362L38.5864 55.5818Z" fill="#FFB8B8"/>
<path d="M42.9238 33.3635C41.6851 33.5554 40.5039 34.0178 39.4643 34.718C38.4247 35.4183 37.5521 36.339 36.9088 37.4147C36.2655 38.4904 35.8671 39.6947 35.7421 40.9419C35.6171 42.1891 35.7685 43.4485 36.1855 44.6306L37.8838 49.4441C37.8838 49.4441 35.7445 63.9377 39.2701 68.0289L50.0884 67.0496C50.0884 67.0496 48.1105 59.7374 49.629 56.1995C50.5589 54.0328 50.5073 46.5493 49.591 40.4616C48.8912 35.8132 47.5692 32.6441 42.9238 33.3635Z" fill="#E6E6E6"/>
<path d="M110.878 9.38188C114.788 11.3319 117.763 14.7552 119.149 18.8989C120.535 23.0425 120.218 27.567 118.268 31.4769C114.208 39.619 99.5338 53.5053 87.8263 55.6034C92.8623 40.3122 85.8601 24.7694 88.7831 16.7719C91.9065 8.22634 102.736 5.32122 110.878 9.38188Z" fill="#1C9F59"/>
<path d="M105.39 28.7476C102.423 28.7476 100.017 26.3421 100.017 23.3748C100.017 20.4074 102.423 18.002 105.39 18.002C108.357 18.002 110.763 20.4074 110.763 23.3748C110.763 26.3421 108.357 28.7476 105.39 28.7476Z" fill="white"/>
<path d="M87.9292 64.2276C85.9856 64.2276 84.4101 62.6521 84.4101 60.7085C84.4101 58.765 85.9856 57.1895 87.9292 57.1895C89.8727 57.1895 91.4482 58.765 91.4482 60.7085C91.4482 62.6521 89.8727 64.2276 87.9292 64.2276Z" fill="#1C9F59"/>
<path opacity="0.2" d="M103.752 17.7259C103.047 17.7014 102.343 17.8162 101.682 18.0636C101.021 18.3111 100.415 18.6865 99.8993 19.1682C99.3833 19.65 98.9673 20.2287 98.6751 20.8713C98.3829 21.5139 98.2202 22.2079 98.1962 22.9134C98.1723 23.6189 98.2877 24.3222 98.5357 24.9832C98.7838 25.6441 99.1596 26.2496 99.6418 26.7652C100.124 27.2808 100.703 27.6963 101.346 27.988C101.989 28.2797 102.683 28.4418 103.388 28.4651C102.193 28.0204 101.194 27.1647 100.572 26.0511C99.9494 24.9375 99.7436 23.6387 99.9913 22.3872C100.239 21.1358 100.924 20.0133 101.924 19.2207C102.923 18.4281 104.172 18.0171 105.447 18.0613C104.904 17.8588 104.332 17.7455 103.752 17.7259Z" fill="#231F20"/>
<path opacity="0.2" d="M88.7563 16.7768C85.8332 24.7743 92.8355 40.3171 87.7994 55.6083C88.9045 55.4049 89.993 55.1199 91.056 54.7559C95.1592 39.974 88.7192 25.2035 91.5434 17.4765C94.0711 10.5607 101.646 7.33979 108.759 8.5148C100.952 5.85237 91.6186 8.94562 88.7563 16.7768Z" fill="#231F20"/>
</svg>
