<svg width="137" height="188" viewBox="0 0 137 188" fill="none" xmlns="http://www.w3.org/2000/svg">
<path d="M40.9786 116.376C40.9786 121.702 36.8511 126.019 31.7593 126.019C26.6676 126.019 22.54 121.702 22.54 116.376C22.54 116.255 22.5419 116.135 22.5468 116.016C22.6403 110.691 26.8443 106.455 31.935 106.554C37.0258 106.654 41.0753 111.051 40.9801 116.376H40.9786Z" fill="#2884BA"/>
<path d="M28.3782 120.896L25.6133 117.311L26.268 116.833L28.5207 119.753L37.3893 112.699L37.9078 113.315L28.3782 120.896Z" fill="white"/>
<path d="M137 186.49H0V187.49H137V186.49Z" fill="white"/>
<path d="M75.793 65.8718C76.0241 65.9779 76.2464 66.1025 76.4576 66.2443L97.5809 57.1835L98.3345 51.5912L106.775 51.5391L106.276 64.3662L78.3956 71.7774C78.3368 71.972 78.2663 72.1629 78.1845 72.3489C77.7814 73.2133 77.1331 73.9388 76.3211 74.4341C75.509 74.9295 74.5695 75.1727 73.6204 75.1331C72.6713 75.0936 71.755 74.7731 70.9866 74.2118C70.2181 73.6506 69.6318 72.8737 69.3013 71.9787C68.9707 71.0837 68.9107 70.1105 69.1286 69.1813C69.3466 68.2521 69.8329 67.4083 70.5264 66.7559C71.22 66.1036 72.0899 65.6717 73.0268 65.5146C73.9638 65.3575 74.926 65.4821 75.7927 65.8728L75.793 65.8718Z" fill="#A0616A"/>
<path d="M109.844 182.103H104.07L101.323 159.721H109.845L109.844 182.103Z" fill="#A0616A"/>
<path d="M99.9468 180.444H111.082V187.488H92.9355C92.9355 185.619 93.6742 183.827 94.9891 182.505C96.3039 181.184 98.0873 180.441 99.9468 180.441V180.444Z" fill="#2F2E41"/>
<path d="M132.299 180.463L126.553 181.031L121.637 159.027L130.117 158.189L132.299 180.463Z" fill="#A0616A"/>
<path d="M122.284 179.788L133.364 178.691L134.051 185.703L115.996 187.49C115.813 185.631 116.374 183.775 117.553 182.33C118.732 180.886 120.434 179.972 122.284 179.788Z" fill="#2F2E41"/>
<path d="M111.452 27.8503C117.84 27.8503 123.019 22.6454 123.019 16.2249C123.019 9.80445 117.84 4.59961 111.452 4.59961C105.064 4.59961 99.8848 9.80445 99.8848 16.2249C99.8848 22.6454 105.064 27.8503 111.452 27.8503Z" fill="#A0616A"/>
<path d="M102.78 177.577C102.284 177.578 101.803 177.403 101.423 177.082C101.042 176.762 100.787 176.317 100.701 175.825C97.7143 159.155 87.9436 104.637 87.7099 103.125C87.7046 103.091 87.702 103.056 87.7022 103.02V98.9549C87.7018 98.8069 87.7478 98.6625 87.8336 98.5421L89.124 96.7269C89.1854 96.6394 89.2658 96.5673 89.3592 96.516C89.4526 96.4648 89.5565 96.4357 89.6628 96.431C97.0212 96.0845 121.115 95.0683 122.279 96.5299C123.448 97.9972 123.033 102.45 122.938 103.327L122.943 103.418L133.769 172.997C133.853 173.552 133.717 174.118 133.39 174.573C133.062 175.028 132.569 175.335 132.018 175.427L125.257 176.547C124.754 176.628 124.238 176.525 123.804 176.256C123.369 175.988 123.045 175.571 122.891 175.083C120.8 168.367 113.788 145.775 111.357 137.033C111.344 136.976 111.31 136.925 111.262 136.892C111.213 136.858 111.154 136.844 111.096 136.853C111.037 136.861 110.984 136.891 110.947 136.937C110.91 136.983 110.892 137.041 110.895 137.1C111.017 145.434 111.31 166.694 111.414 174.038L111.424 174.829C111.429 175.364 111.233 175.882 110.876 176.279C110.519 176.677 110.027 176.925 109.497 176.976L102.977 177.569C102.912 177.575 102.846 177.578 102.78 177.577Z" fill="#2F2E41"/>
<path d="M104.11 32.4226C102.092 33.6288 100.883 35.8447 100.19 38.1037C98.9072 42.2789 98.1348 46.5957 97.8902 50.9587L97.1574 64.0218L88.0889 98.6554C95.949 105.339 100.482 103.82 111.062 98.3529C121.643 92.8859 122.851 100.176 122.851 100.176L124.967 70.7069L127.989 38.5054C127.311 37.6843 126.543 36.9422 125.7 36.2931C122.906 34.1092 119.655 32.5911 116.193 31.8531C112.73 31.1152 109.147 31.1767 105.711 32.033L104.11 32.4226Z" fill="#2884BA"/>
<path d="M101.165 72.8661C101.409 72.9577 101.645 73.0686 101.872 73.1975L122.759 62.6896L123.105 56.9974L131.721 56.4004L132.182 69.3761L104.271 78.654C104.043 79.637 103.523 80.5271 102.779 81.2057C102.036 81.8844 101.105 82.3194 100.109 82.4531C99.114 82.5867 98.1017 82.4126 97.2071 81.9539C96.3126 81.4951 95.5783 80.7735 95.1018 79.885C94.6253 78.9966 94.4293 77.9833 94.5398 76.9802C94.6503 75.977 95.0621 75.0314 95.7205 74.2692C96.3788 73.507 97.2524 72.9644 98.2251 72.7134C99.1978 72.4625 100.224 72.5151 101.166 72.8644L101.165 72.8661Z" fill="#A0616A"/>
<path d="M127.839 38.6501C132.978 40.4728 133.884 60.2217 133.884 60.2217C127.838 56.88 120.583 62.3482 120.583 62.3482C120.583 62.3482 119.072 57.1832 117.258 50.5C116.711 48.62 116.645 46.6314 117.068 44.7191C117.491 42.8068 118.388 41.0331 119.676 39.5631C119.676 39.5631 122.7 36.8265 127.839 38.6501Z" fill="#2884BA"/>
<path d="M121.821 19.2991C120.38 18.1403 118.414 20.2457 118.414 20.2457L117.261 9.81941C117.261 9.81941 110.056 10.687 105.443 9.52964C100.83 8.37225 100.11 13.7316 100.11 13.7316C99.8725 11.5672 99.8243 9.38605 99.9662 7.21318C100.254 4.60595 104.001 1.99871 110.631 0.260437C117.26 -1.47783 120.719 6.05445 120.719 6.05445C125.334 8.37024 123.264 20.4591 121.821 19.2991Z" fill="#2F2E41"/>
<path d="M0.872606 20.4902C0.641031 20.4907 0.419085 20.5989 0.255483 20.791C0.0918815 20.9831 0 21.2434 0 21.5148C0 21.7862 0.0918815 22.0465 0.255483 22.2386C0.419085 22.4307 0.641031 22.5388 0.872606 22.5393H64.6979C64.9295 22.5388 65.1515 22.4307 65.3151 22.2386C65.4787 22.0465 65.5705 21.7862 65.5705 21.5148C65.5705 21.2434 65.4787 20.9831 65.3151 20.791C65.1515 20.5989 64.9295 20.4907 64.6979 20.4902H0.872606Z" fill="white"/>
<path d="M0.872923 25.6133C0.641785 25.6131 0.420037 25.7207 0.256368 25.9123C0.0926996 26.104 0.000489562 26.3642 1.94383e-06 26.6357C-0.000485674 26.9071 0.0907852 27.1677 0.253764 27.3602C0.416743 27.5527 0.638111 27.6614 0.869247 27.6624H41.1338C41.2484 27.6624 41.3618 27.6359 41.4676 27.5844C41.5735 27.5329 41.6696 27.4574 41.7506 27.3623C41.8316 27.2671 41.8959 27.1542 41.9397 27.0299C41.9836 26.9056 42.0061 26.7724 42.0061 26.6378C42.0061 26.5033 41.9836 26.37 41.9397 26.2457C41.8959 26.1214 41.8316 26.0085 41.7506 25.9134C41.6696 25.8182 41.5735 25.7428 41.4676 25.6913C41.3618 25.6398 41.2484 25.6133 41.1338 25.6133H0.872923Z" fill="white"/>
<path d="M63.5201 13.8651C63.5201 15.8273 61.915 17.4179 59.9349 17.4179C57.9548 17.4179 56.3496 15.8273 56.3496 13.8651C56.3496 13.8207 56.3503 13.7765 56.3523 13.7324C56.3886 11.7707 58.0235 10.2101 60.0032 10.2467C61.9829 10.2834 63.5578 11.9034 63.5207 13.8651H63.5201Z" fill="#2884BA"/>
<path d="M58.5261 15.3685L57.374 14.0243L57.6468 13.8451L58.5854 14.9402L62.2807 12.2949L62.4967 12.526L58.5261 15.3685Z" fill="white"/>
<path d="M0.872606 52.252C0.641031 52.2524 0.419085 52.3606 0.255483 52.5527C0.0918815 52.7448 0 53.0051 0 53.2765C0 53.5479 0.0918815 53.8082 0.255483 54.0003C0.419085 54.1924 0.641031 54.3005 0.872606 54.301H64.6979C64.9295 54.3005 65.1515 54.1924 65.3151 54.0003C65.4787 53.8082 65.5705 53.5479 65.5705 53.2765C65.5705 53.0051 65.4787 52.7448 65.3151 52.5527C65.1515 52.3606 64.9295 52.2524 64.6979 52.252H0.872606Z" fill="white"/>
<path d="M0.872923 57.375C0.641785 57.3748 0.420037 57.4824 0.256368 57.6741C0.0926996 57.8658 0.000489562 58.1259 1.94383e-06 58.3974C-0.000485674 58.6689 0.0907852 58.9295 0.253764 59.122C0.416743 59.3145 0.638111 59.4231 0.869247 59.4241H41.1338C41.3652 59.4241 41.587 59.3161 41.7506 59.124C41.9142 58.9319 42.0061 58.6713 42.0061 58.3995C42.0061 58.1278 41.9142 57.8672 41.7506 57.6751C41.587 57.4829 41.3652 57.375 41.1338 57.375H0.872923Z" fill="white"/>
<path d="M63.5201 45.6249C63.5201 47.587 61.915 49.1776 59.9349 49.1776C57.9548 49.1776 56.3496 47.587 56.3496 45.6249C56.3496 45.5804 56.3503 45.5363 56.3523 45.4922C56.3886 43.5304 58.0235 41.9699 60.0032 42.0065C61.9829 42.0431 63.5578 43.6632 63.5207 45.6249H63.5201Z" fill="#2884BA"/>
<path d="M58.2957 47.1283L57.374 45.7841L57.5923 45.6049L58.3432 46.7L61.2994 44.0547L61.4722 44.2857L58.2957 47.1283Z" fill="white"/>
<path d="M0.872606 84.0117C0.641031 84.0122 0.419085 84.1204 0.255483 84.3125C0.0918815 84.5045 0 84.7648 0 85.0363C0 85.3077 0.0918815 85.568 0.255483 85.7601C0.419085 85.9521 0.641031 86.0603 0.872606 86.0608H64.6979C64.9295 86.0603 65.1515 85.9521 65.3151 85.7601C65.4787 85.568 65.5705 85.3077 65.5705 85.0363C65.5705 84.7648 65.4787 84.5045 65.3151 84.3125C65.1515 84.1204 64.9295 84.0122 64.6979 84.0117H0.872606Z" fill="white"/>
<path d="M0.872923 90.1602C0.641785 90.1601 0.420037 90.2138 0.256368 90.3097C0.0926996 90.4055 0.000489562 90.5356 1.94383e-06 90.6713C-0.000485674 90.8071 0.0907852 90.9374 0.253764 91.0336C0.416743 91.1299 0.638111 91.1842 0.869247 91.1847H41.1338C41.3652 91.1847 41.587 91.1307 41.7506 91.0347C41.9142 90.9386 42.0061 90.8083 42.0061 90.6724C42.0061 90.5366 41.9142 90.4063 41.7506 90.3102C41.587 90.2141 41.3652 90.1602 41.1338 90.1602H0.872923Z" fill="white"/>
<path d="M63.5201 77.9036C63.5201 80.1461 61.915 81.9639 59.9349 81.9639C57.9548 81.9639 56.3496 80.1461 56.3496 77.9036C56.3496 77.8528 56.3503 77.8023 56.3523 77.7519C56.3886 75.5099 58.0235 73.7264 60.0032 73.7683C61.9829 73.8102 63.5578 75.6616 63.5207 77.9036H63.5201Z" fill="#2884BA"/>
<path d="M58.2957 79.9146L57.374 78.1223L57.5923 77.8834L58.3432 79.3435L61.2994 75.8164L61.4722 76.1245L58.2957 79.9146Z" fill="white"/>
</svg>
