<svg width="256" height="131" viewBox="0 0 256 131" fill="none" xmlns="http://www.w3.org/2000/svg">
<g clip-path="url(#clip0_2053_3752)">
<path d="M244.637 72.4233L243.835 78.8161L241.845 94.6945H201.861C202.174 91.1357 202.6 86.0132 203.056 80.4833C203.101 79.931 203.149 79.3753 203.193 78.8161C204.337 64.9156 205.588 49.1855 205.588 49.1855L210.845 50.1659L221.043 52.0644L225.199 52.8376L236.328 54.9122C241.876 55.9443 245.693 63.987 244.637 72.4233Z" fill="#F2F2F2"/>
<path d="M214.393 23.4629L219.31 32.0768L209.86 38.7816L205.828 28.1935L214.393 23.4629Z" fill="#FFB6B6"/>
<path d="M208.134 31.6116C214.861 31.6116 220.315 26.1519 220.315 19.4171C220.315 12.6823 214.861 7.22266 208.134 7.22266C201.407 7.22266 195.953 12.6823 195.953 19.4171C195.953 26.1519 201.407 31.6116 208.134 31.6116Z" fill="#FFB6B6"/>
<path d="M207.259 22.1437C206.291 20.67 206.671 19.8993 205.861 19.3577C205.861 19.3577 205.535 19.1398 203.203 19.0155C202.681 15.2535 202.029 14.7973 202.029 14.7973C201.278 14.2715 200.164 14.4423 199.47 14.7639C198.003 15.444 198.173 16.9132 197.186 17.1944C195.821 17.5827 193.339 15.3933 193.095 12.8868C192.895 10.8423 194.211 8.85648 194.733 8.96153C195.25 9.06569 196.489 7.48232 197.158 7.50674C197.615 7.52342 199.481 6.71125 199.983 6.77474C200.532 6.8441 202.34 7.78865 202.415 7.57285C202.939 6.07323 202.785 5.65715 203.229 5.22814C204.016 4.46794 205.304 4.99732 207.324 5.28153C211.481 5.86628 212.206 4.49418 214.337 5.4242C215.413 5.894 216.313 7.161 218.07 9.67582C220.527 13.1928 221.755 14.9512 221.763 17.0022C221.771 19.0939 220.76 18.9611 220.315 22.0576C219.82 25.5046 220.872 27.0807 219.723 28.2006C218.836 29.0661 217.032 29.2715 216.084 28.5119C214.461 27.2114 216.585 24.0733 214.789 21.7806C213.687 20.3732 211.47 19.747 210.455 20.4427C209.307 21.2293 209.939 23.5381 209.132 23.757C208.44 23.9445 207.427 22.4005 207.259 22.1437Z" fill="#2F2E41"/>
<path d="M235.634 70.1725C235.294 75.9883 233.945 77.8243 233.472 84.6926C233.369 86.2006 233.307 87.9509 233.307 90.0383C233.307 90.5704 233.309 91.085 233.309 91.5877C233.309 92.6579 233.289 93.6692 233.165 94.695C233.07 95.514 232.908 96.339 232.639 97.2082H206.404C206.402 97.2023 206.402 97.1964 206.398 97.1904C206.245 96.5223 206.147 95.8836 206.074 95.2717C206.05 95.0765 206.029 94.8843 206.012 94.695C205.988 94.4733 205.967 94.2546 205.947 94.0387C205.867 93.1783 205.787 92.3652 205.598 91.5877C205.344 90.5143 204.883 89.5031 203.938 88.5275C203.551 88.1283 203.165 87.8179 202.787 87.5459C202.713 87.4955 202.642 87.4453 202.568 87.3951C201.522 86.6765 200.533 86.1591 199.677 84.6926C199.662 84.672 199.65 84.6483 199.638 84.6277C199.491 84.3704 199.107 83.6962 198.829 82.7975C198.537 81.8632 198.359 80.6893 198.678 79.489C199.438 76.6447 202.249 76.3609 204.547 73.4869C204.795 73.1765 205.04 72.8335 205.273 72.4521C206.313 70.7608 206.593 69.2708 206.924 67.4997C206.977 67.2128 207.025 66.929 207.063 66.6541C207.093 66.4471 207.119 66.2431 207.14 66.042C207.323 64.3538 207.234 62.8991 207.019 61.5982C206.316 57.3376 204.243 54.7003 205.707 50.8773C206.168 49.677 206.821 48.7752 207.479 48.0035C208.873 46.3684 210.306 45.307 210.058 43.196C209.807 41.0672 208.194 40.7744 208.014 38.9147C207.922 37.9745 208.23 36.984 208.806 36.0113V36.0084C210.648 32.8772 215.25 29.9944 218.173 30.0861C218.714 30.101 219.192 30.2221 219.591 30.4557C221.035 31.3072 220.433 33.1669 222.645 35.7748C224.29 37.7113 226.15 38.486 226.856 38.8526C229.653 40.3133 231.927 44.6211 233.472 50.1293C233.484 50.1708 233.495 50.212 233.507 50.2565C234.461 53.7069 235.135 57.6245 235.469 61.5982C235.61 63.2805 235.693 64.9718 235.71 66.6452C235.725 67.9816 235.696 69.1407 235.634 70.1725Z" fill="#1C9F59"/>
<path d="M215.988 90.0961L215.453 91.5863L215.117 92.5205L214.337 94.6937L213.433 97.2069H207.624L208.599 94.6937L209.051 93.5229L209.801 91.5863L211.059 88.334L215.988 90.0961Z" fill="#FFB6B6"/>
<path d="M233.564 49.6203C233.549 49.8126 233.528 50.0254 233.507 50.2561C233.277 52.6036 232.734 56.805 231.939 61.5978C231.52 64.1257 231.03 66.8193 230.477 69.495C229.29 75.2693 227.813 80.9551 226.145 84.6922C225.846 85.3664 225.539 85.9755 225.226 86.5135C224.987 86.9246 224.736 87.3295 224.473 87.7287C223.623 89.0385 222.668 90.2804 221.679 91.4394C221.641 91.4896 221.596 91.537 221.552 91.5872C221.393 91.7763 221.227 91.9627 221.062 92.149C220.253 93.0625 219.426 93.914 218.625 94.6946C217.651 95.6467 216.712 96.4894 215.87 97.2078H206.437L206.398 97.19L205.04 96.5868C205.04 96.5868 205.427 96.1315 206.074 95.2712C206.207 95.0967 206.348 94.9045 206.502 94.6946C206.691 94.4373 206.895 94.1535 207.113 93.846C207.568 93.2015 208.085 92.4446 208.64 91.5872C209.715 89.9284 210.941 87.8884 212.178 85.5261C212.32 85.251 212.465 84.9731 212.609 84.6922C212.612 84.6834 212.618 84.6744 212.621 84.6656C212.866 84.1866 213.109 83.6929 213.351 83.1902C215.403 78.9149 215.991 75.3669 216.16 74.2168C216.396 72.5907 216.723 70.3169 216.635 67.8156C216.576 66.1659 216.337 64.4213 215.767 62.6888V62.6859C215.648 62.3222 215.516 61.9585 215.365 61.5978C215.096 60.9503 214.777 60.3116 214.399 59.6819C212.731 56.9086 211.375 56.7932 210.297 53.7714C209.978 52.8756 209.254 50.8533 209.476 48.7186V48.7157C209.503 48.4525 209.547 48.1864 209.606 47.9202V47.9173C209.621 47.8434 209.641 47.7666 209.662 47.6927C209.83 47.0393 210.108 46.3916 210.53 45.7766C211.354 44.5823 212.479 43.8725 213.487 43.4498L213.49 43.4468C214.653 42.962 215.657 42.8585 215.852 42.8407C220.167 42.4564 223.513 46.0871 225.341 48.0711C226.047 48.8368 226.694 49.4785 227.285 50.0017C231.883 54.1116 233.144 51.4859 233.472 50.1289C233.522 49.919 233.549 49.7387 233.564 49.6203Z" fill="#1C9F59"/>
<path d="M233.578 49.4668C233.578 49.4815 233.575 49.5318 233.563 49.6146C233.569 49.5702 233.572 49.5258 233.575 49.4844C233.575 49.4756 233.575 49.4697 233.578 49.4668Z" fill="#1C9F59"/>
<path d="M210.122 111.855H51.8075C50.3366 111.855 49.1377 113.053 49.1377 114.525C49.1377 116.001 50.3366 117.198 51.8075 117.198H210.122C211.593 117.198 212.789 116.001 212.789 114.525C212.789 113.053 211.593 111.855 210.122 111.855Z" fill="white"/>
<path d="M174.99 125.658H86.9383C85.4675 125.658 84.2715 126.856 84.2715 128.328C84.2715 129.8 85.4675 131.001 86.9383 131.001H174.99C176.461 131.001 177.66 129.8 177.66 128.328C177.66 126.856 176.461 125.658 174.99 125.658Z" fill="white"/>
<path d="M69.4248 24.0299L79.4023 19.8262L83.6819 28.6091L73.197 32.8934L69.4248 24.0299Z" fill="#FFB6B6"/>
<path opacity="0.1" d="M69.4248 24.0299L79.4023 19.8262L83.6819 28.6091L73.197 32.8934L69.4248 24.0299Z" fill="black"/>
<path d="M70.8425 20.683L80.6855 32.0365C80.6855 32.0365 73.8382 53.6724 66.9909 55.6004C60.1436 57.5283 47.5189 66.9539 47.5189 66.9539L31.6846 56.6715L39.3878 45.318C39.3878 45.318 58.0038 19.8262 62.9253 19.8262C67.8468 19.8262 70.8425 20.683 70.8425 20.683Z" fill="#1C9F59"/>
<path d="M57.5441 94.695H34.6314L33.1828 92.7563L27.2684 84.841L25.9075 83.0201C25.9075 83.0201 20.7721 73.5946 21.842 65.0259C22.9118 56.4572 34.0387 54.5293 34.0387 54.5293H34.4966L48.1184 66.5126L47.3053 77.6647L51.6191 84.841L57.5441 94.695Z" fill="#2F2E41"/>
<path d="M39.3238 94.696H33.1826V85.5918L39.3238 94.696Z" fill="#2F2E41"/>
<path d="M171.781 80.8742L171.017 84.8415L169.121 94.6955H131.035C131.333 92.4869 131.739 89.3079 132.174 85.8762C132.216 85.5334 132.261 85.1886 132.304 84.8415C133.393 76.215 134.585 66.4531 134.585 66.4531L139.592 67.0615L149.307 68.2397L153.265 68.7196L163.866 70.007C169.151 70.6475 172.786 75.6388 171.781 80.8742Z" fill="#F2F2F2"/>
<path d="M225.679 94.6952H205.021C205.336 94.3246 205.514 94.1104 205.514 94.1104L211.706 93.0864L224.466 90.9785C224.466 90.9785 225.048 92.4845 225.679 94.6952Z" fill="#2F2E41"/>
<path d="M138.056 28.3145L147.04 41.0334L131.37 41.5019L129.688 29.5491L138.056 28.3145Z" fill="#A0616A"/>
<path opacity="0.1" d="M138.056 28.3145L147.04 41.0334L131.37 41.5019L129.688 29.5491L138.056 28.3145Z" fill="black"/>
<path d="M93.7535 54.6678C92.6008 51.3388 89.9508 49.2359 87.8347 49.9706C85.7186 50.7054 84.9382 53.9992 86.0917 57.3292C86.5343 58.6657 87.2901 59.8766 88.296 60.8608L93.358 74.9039L99.89 72.3853L94.2063 58.8087C94.3879 57.412 94.2326 55.9921 93.7535 54.6678Z" fill="#A0616A"/>
<path d="M154.563 48.1867L154.551 61.149L153.346 65.9367L150.868 75.7843L149.064 84.8414L147.72 91.5892L147.241 93.9991C146.879 94.2412 146.52 94.4725 146.161 94.6953H114.862C113.084 93.6264 112.089 92.7952 112.089 92.7952C112.089 92.7952 112.581 92.3325 113.144 91.5892C114.094 90.3339 115.243 88.2774 114.539 86.313C114.391 85.9017 114.353 85.4005 114.398 84.8414C114.684 81.1526 118.549 74.9145 118.549 74.9145L117.749 65.6561L117.398 61.5988L119.872 41.8158L127.937 37.1223L129.329 36.9875L143.073 36.2441L148.753 36.5719L149.012 36.6426L154.563 48.1867Z" fill="#497A96"/>
<path d="M155.173 94.6968H148.326L148.024 91.5906L148.018 91.5285L149.956 91.3957L155 91.0508L155.087 92.9102L155.156 94.3369L155.173 94.6968Z" fill="#FFB6B6"/>
<path d="M156.859 51.3214L159.735 68.2167L157.388 84.842L157.022 87.4298L156.376 91.999L156.177 93.4043L156.183 93.5564L156.232 94.696H148.101L147.802 91.5899L147.776 91.3114L147.164 84.9491L147.153 84.842L145.854 71.3506L148.401 61.5995L148.589 60.8818V60.8797L149.697 44.1836L148.839 36.5961L148.83 36.5254C148.848 36.5361 148.863 36.5468 148.88 36.5575C148.925 36.5854 148.969 36.6132 149.012 36.6432C154.011 39.8179 156.989 45.3876 156.859 51.3214Z" fill="#497A96"/>
<path d="M122.785 45.0541L119.658 41.8164C119.658 41.8164 112.965 44.8374 112.631 46.5134C112.298 48.1894 100.479 72.8057 100.479 72.8057L95.3374 59.0576L88.6445 63.5311C88.6445 63.5311 94.0149 84.8758 99.0373 85.8778C104.06 86.8799 120.893 60.6143 120.893 60.6143L122.785 45.0541Z" fill="#497A96"/>
<path d="M249.748 84.6934H6.24935C2.80281 84.6934 0 87.5022 0 90.9526C0 94.403 2.8028 97.2089 6.24935 97.2089H249.748C253.194 97.2089 256 94.4031 256 90.9526C256 87.502 253.194 84.6934 249.748 84.6934Z" fill="white"/>
<path d="M153.138 65.6209L152.665 87.7374C152.619 89.8783 150.872 91.59 148.733 91.59H108.094C106.006 91.59 104.282 89.9556 104.168 87.868L102.96 65.7514C102.837 63.496 104.631 61.5996 106.887 61.5996H149.207C151.412 61.5996 153.186 63.4141 153.138 65.6209Z" fill="#3F3D56"/>
<path d="M87.5326 29.3681C92.9024 29.3681 97.2555 25.0101 97.2555 19.6342C97.2555 14.2584 92.9024 9.90039 87.5326 9.90039C82.1627 9.90039 77.8096 14.2584 77.8096 19.6342C77.8096 25.0101 82.1627 29.3681 87.5326 29.3681Z" fill="#FFB6B6"/>
<path d="M71.2709 45.1044L72.3408 56.6721L79.616 86.0198L73.3307 88.2252L62.7118 56.2436L61.2451 43.3906L71.2709 45.1044Z" fill="#FFB6B6"/>
<path d="M68.3767 65.6209L67.9033 87.7374C67.8575 89.8783 66.1107 91.59 63.9717 91.59H23.3327C21.2443 91.59 19.5201 89.9556 19.4061 87.868L18.1984 65.7514C18.0752 63.496 19.8688 61.5996 22.125 61.5996H64.4451C66.6499 61.5996 68.4239 63.4141 68.3767 65.6209Z" fill="#3F3D56"/>
<path d="M80.7744 91.7378C85.0153 91.7378 88.4532 90.2155 88.4532 88.3377C88.4532 86.4598 85.0153 84.9375 80.7744 84.9375C76.5336 84.9375 73.0957 86.4598 73.0957 88.3377C73.0957 90.2155 76.5336 91.7378 80.7744 91.7378Z" fill="#FFB6B6"/>
<path d="M56.1855 46.872L60.5721 23.4675C60.5721 23.4675 72.7688 21.7538 73.1968 25.8239C73.6247 29.894 72.891 49.7852 72.891 49.7852L56.1855 46.872Z" fill="#1C9F59"/>
<path d="M83.6078 21.1646C83.6078 21.1646 89.6224 19.0156 92.1595 17.8594C94.6966 16.7031 99.737 24.768 99.8491 20.5086C99.9612 16.2493 98.2196 14.4631 98.2196 14.4631C98.2196 14.4631 97.7847 5.14518 88.4075 6.31014C88.4075 6.31014 90.4701 1.64828 83.6997 0.927404C76.9292 0.206532 66.3961 16.5743 67.3395 19.0204C68.2828 21.4665 69.4136 23.4888 66.7373 26.1042C64.061 28.7196 59.0496 43.4802 62.8625 47.4522C66.6754 51.4242 66.9256 53.1478 64.3132 55.6188C61.7007 58.0899 55.5257 63.463 62.2023 64.3957C68.879 65.3285 61.5915 64.6318 66.569 60.2486C71.5466 55.8654 78.81 56.0445 76.0979 49.012C73.3859 41.9795 78.0977 31.902 77.5081 30.3732C76.9185 28.8444 78.829 19.1364 78.829 19.1364C78.829 19.1364 83.2753 18.4825 83.6078 21.1646Z" fill="#2F2E41"/>
<path d="M133.253 32.9186C139.099 32.9186 143.837 28.1746 143.837 22.3226C143.837 16.4706 139.099 11.7266 133.253 11.7266C127.408 11.7266 122.669 16.4706 122.669 22.3226C122.669 28.1746 127.408 32.9186 133.253 32.9186Z" fill="#A0616A"/>
<path d="M134.098 8.07683C133.791 8.25581 133.381 7.98502 133.283 7.64388C133.185 7.30274 133.299 6.94055 133.413 6.60418L133.984 4.91085C134.389 3.70991 134.819 2.467 135.696 1.55292C137.02 0.173276 139.124 -0.1777 141.018 0.0765696C143.45 0.403103 145.85 1.72167 146.981 3.90209C148.112 6.08251 147.63 9.12498 145.587 10.4853C148.499 13.8274 149.515 17.5519 149.354 21.9842C149.194 26.4166 144.369 30.4957 141.223 33.6181C140.52 33.1917 139.882 31.1934 140.268 30.4674C140.654 29.7415 140.101 28.9004 140.579 28.2318C141.058 27.5631 141.458 28.6278 140.974 27.9629C140.669 27.5434 141.861 26.5782 141.407 26.3271C139.212 25.1125 138.482 22.3737 137.104 20.2764C135.441 17.7466 132.595 16.0335 129.584 15.7492C127.925 15.5927 126.172 15.8762 124.813 16.8404C123.453 17.8046 122.573 19.5276 122.888 21.1656C122.071 20.3355 121.665 19.119 121.818 17.9641C121.971 16.8092 122.681 15.7412 123.686 15.1534C123.075 13.1306 123.598 10.8039 125.017 9.23856C126.435 7.67326 132.187 7.93986 134.258 8.35182L134.098 8.07683Z" fill="#2F2E41"/>
<path d="M134.419 15.8105C137.161 16.1069 139.141 18.4849 140.813 20.6809C141.777 21.9467 142.786 23.3445 142.762 24.9358C142.737 26.5446 141.663 27.9245 141.149 29.4492C140.31 31.9414 141.128 34.9065 143.126 36.6141C141.152 36.9891 139.017 35.5072 138.677 33.5246C138.28 31.2166 140.028 28.9891 139.821 26.6563C139.638 24.6012 138.02 23.0195 136.645 21.4828C135.27 19.9462 133.978 17.9071 134.611 15.9435L134.419 15.8105Z" fill="#2F2E41"/>
<path d="M175.414 86.0316C172.698 87.5782 171.293 90.2349 172.277 91.9652C173.26 93.6956 176.259 93.8441 178.976 92.2966C180.07 91.6933 181.003 90.8366 181.698 89.7981L193.124 83.0996L189.87 77.7988L178.952 84.9652C177.704 85.0327 176.491 85.3984 175.414 86.0316Z" fill="#FFB6B6"/>
<path d="M214.099 36.9104C213.757 36.775 210.761 35.6392 208.026 37.1388C204.884 38.8614 204.399 42.7938 204.229 44.173C203.836 47.3591 204.994 48.0733 205.239 51.2988C205.696 57.3334 206.902 50.4491 204.976 53.2036C204.309 54.1571 197.499 68.9325 193.743 71.8266C186.438 77.4553 181.8 81.4192 181.8 81.4192L187.095 87.178C187.095 87.178 195.463 84.9459 202.859 80.1382C210.446 75.2065 214.239 72.7406 217.174 67.9168C217.427 67.5014 223.474 57.2208 220.226 45.8529C219.485 43.2599 218.128 38.509 214.099 36.9104Z" fill="#1C9F59"/>
<path d="M241.443 65.6209L240.97 87.7374C240.924 89.8783 239.177 91.59 237.038 91.59H196.399C194.311 91.59 192.586 89.9556 192.472 87.868L191.265 65.7514C191.142 63.496 192.935 61.5996 195.191 61.5996H237.511C239.716 61.5996 241.49 63.4141 241.443 65.6209Z" fill="#3F3D56"/>
</g>
<defs>
<clipPath id="clip0_2053_3752">
<rect width="256" height="131" fill="white"/>
</clipPath>
</defs>
</svg>
