<svg width="210" height="221" viewBox="0 0 210 221" fill="none" xmlns="http://www.w3.org/2000/svg">
<path d="M93.9623 212.287H98.3118L102.539 179.598H92.6875L93.9623 212.287Z" fill="#A0616A"/>
<path d="M92.5432 209.311L99.4919 208.896V211.871L106.098 216.431C106.425 216.656 106.67 216.979 106.8 217.354C106.929 217.728 106.935 218.135 106.817 218.513C106.699 218.891 106.463 219.222 106.144 219.457C105.824 219.691 105.438 219.818 105.042 219.818H96.7688L95.3429 216.875L94.7861 219.818H91.667L92.5432 209.311Z" fill="#2F2E41"/>
<path d="M29.3779 201.92L33.3461 203.7L50.5965 175.604L41.609 171.574L29.3779 201.92Z" fill="#A0616A"/>
<path d="M29.3027 198.623L35.8121 201.088L34.5932 203.802L38.7524 210.664C38.9579 211.003 39.0496 211.399 39.014 211.794C38.9785 212.188 38.8177 212.561 38.555 212.858C38.2924 213.155 37.9416 213.36 37.554 213.444C37.1664 213.527 36.7622 213.485 36.4004 213.323L28.8529 209.938L28.7576 206.67L27.044 209.127L24.1982 207.851L29.3027 198.623Z" fill="#2F2E41"/>
<path d="M60.6724 108.273L80.7913 105.547C80.7913 105.547 106.656 165.32 105.573 195.886L89.1598 197.909C89.1598 197.909 89.2847 185.375 90.1952 184.416C91.1057 183.457 92.2289 184.677 91.1057 181.935C89.9825 179.192 89.0812 178.499 90.4304 177.162C91.7796 175.825 75.8181 152.439 75.8181 152.439C75.8181 152.439 50.7025 184.005 49.3546 184.903C48.0068 185.801 46.4753 185.999 47.3534 188.257C48.2314 190.515 46.6582 194.842 46.6582 194.842C46.6582 194.842 36.7603 193.342 32.7168 183.465C32.7168 183.465 49.0676 153.7 50.5518 153.206C52.036 152.712 52.7099 155.181 52.036 152.712C51.3621 150.242 50.0142 151.14 51.3621 150.242C52.27 149.663 53.2524 149.21 54.2824 148.895L59.5124 135.079C55.4805 125.838 55.7385 116.893 60.6724 108.273Z" fill="#024C77"/>
<path d="M60.4795 92.4551L61.2179 99.2991L60.7833 108.274L80.6771 105.912L82.5465 92.4551L80.1648 92.4783L60.4795 92.4551Z" fill="#FFB6B6"/>
<path d="M77.4012 70.3496L69.9142 64.4432L65.984 64.2148L60.1523 67.948L58.7244 75.2276L55.3472 83.425L60.3006 105.547C60.3006 105.547 60.7652 107.135 59.5477 107.325C58.3303 107.516 58.4763 109.856 58.4763 109.856C58.4763 109.856 58.7242 111.884 57.542 112.063C56.3599 112.241 53.2076 112.241 55.966 115.785C58.7244 119.329 81.0649 105.898 81.0649 105.898L83.7102 89.311C83.7102 89.311 89.8555 81.0632 83.2375 76.3395L77.4012 70.3496Z" fill="#046B34"/>
<path d="M44.7164 120.577C44.3866 120.165 44.1509 119.687 44.0262 119.175C43.9014 118.662 43.8906 118.129 43.9944 117.612C44.0982 117.095 44.3142 116.608 44.6271 116.183C44.94 115.759 45.3422 115.408 45.8054 115.156L55.2229 83.5742L61.1116 86.5367L50.8557 116.807C51.2283 117.613 51.2922 118.527 51.0352 119.377C50.7783 120.226 50.2184 120.952 49.4616 121.417C48.7049 121.882 47.8039 122.053 46.9293 121.898C46.0547 121.743 45.2674 121.273 44.7164 120.577Z" fill="#A0616A"/>
<path d="M61.5049 67.6557C61.5049 67.6557 59.8216 66.7618 58.6702 70.6302C57.7484 73.7272 50.2687 92.1741 50.1733 96.659C49.5578 96.7893 49.0031 97.1206 48.5967 97.6007C48.1903 98.0807 47.9553 98.6822 47.9287 99.3104L57.1767 100.549C58.7927 99.1868 59.2166 97.3472 58.5914 96.8012L60.5993 91.3212L68.9763 73.8857L62.7332 68.2804L61.5049 67.6557Z" fill="#046B34"/>
<path d="M110.919 110.195C111.039 109.682 111.044 109.148 110.935 108.633C110.826 108.117 110.605 107.631 110.288 107.21C109.97 106.789 109.564 106.442 109.099 106.195C108.633 105.947 108.118 105.805 107.592 105.778L85.988 81.123L81.4053 86.5872L103.753 109.449C103.765 110.337 104.103 111.189 104.703 111.844C105.302 112.499 106.121 112.911 107.004 113.003C107.888 113.095 108.774 112.86 109.496 112.342C110.217 111.825 110.724 111.061 110.919 110.195Z" fill="#A0616A"/>
<path d="M72.8804 69.733C72.8804 69.733 74.0113 68.1995 76.7236 71.1899C78.895 73.584 93.6223 86.9848 95.6492 90.9874C96.2606 90.839 96.9041 90.898 97.4783 91.1552C98.0524 91.4124 98.5246 91.8532 98.8205 92.4081L91.0179 97.521C88.9714 96.9912 87.793 95.5158 88.1205 94.7533L83.9385 90.6799L68.8398 78.5788L72.0432 70.8269L72.8804 69.733Z" fill="#046B34"/>
<path d="M76.713 64.7369C77.5799 63.4926 70.089 60.5512 68.6388 61.1103C65.6637 62.264 62.1488 64.729 59.4141 65.0794C59.4664 63.9951 59.3697 62.9086 59.1264 61.8506C58.8309 62.9256 58.5393 64.0044 58.2437 65.0834C55.6627 64.7172 51.3635 60.3937 52.4196 50.4197C52.857 46.3127 55.8715 41.9459 65.7229 40.3276C74.8176 38.8391 77.0361 45.5843 77.8873 49.9905C79.826 59.996 78.8685 64.5833 76.713 64.7369Z" fill="#2F2E41"/>
<path d="M68.2461 61.1246C72.7469 61.1246 76.3955 57.4787 76.3955 52.9812C76.3955 48.4838 72.7469 44.8379 68.2461 44.8379C63.7453 44.8379 60.0967 48.4838 60.0967 52.9812C60.0967 57.4787 63.7453 61.1246 68.2461 61.1246Z" fill="#A0616A"/>
<path d="M79.2151 50.0754L75.3114 50.6715C73.5898 49.594 72.9342 47.9953 72.8523 46.1159L73.2449 50.9871L71.3791 51.272C70.1613 50.4601 69.6171 49.5809 69.9446 48.6146L70.1735 51.4561C65.2004 53.2467 60.3797 54.5671 56.3098 53.5732C56.1001 52.2022 56.1627 50.8033 56.4941 49.4564C56.8254 48.1096 57.419 46.8411 58.2409 45.7235C59.0628 44.6059 60.097 43.661 61.2844 42.9427C62.4718 42.2245 63.7891 41.7469 65.1611 41.5374L67.1704 41.2306C68.5425 41.0211 69.9424 41.0836 71.2902 41.4147C72.6381 41.7458 73.9075 42.339 75.026 43.1603C76.1444 43.9816 77.09 45.015 77.8088 46.2015C78.5276 47.388 79.0055 48.7043 79.2151 50.0754Z" fill="#2F2E41"/>
<path d="M25.3096 220.886L175.69 221C175.772 221 175.851 220.953 175.909 220.87C175.967 220.787 176 220.675 176 220.557C176 220.44 175.967 220.327 175.909 220.244C175.851 220.161 175.772 220.114 175.69 220.114L25.3096 220C25.2274 220 25.1486 220.047 25.0906 220.13C25.0326 220.213 25 220.326 25 220.443C25 220.56 25.0326 220.673 25.0906 220.756C25.1486 220.839 25.2274 220.885 25.3096 220.886Z" fill="white"/>
<path d="M186.037 176.883H131.496C128.54 176.883 126.134 173.543 126.134 169.439V113.445C126.134 109.34 128.54 106 131.496 106H197.924C200.881 106 203.287 109.34 203.287 113.445V152.937C203.287 166.141 195.549 176.883 186.037 176.883Z" fill="#F2F2F2"/>
<path d="M178.025 198.049H104.363C102.941 198.047 101.578 197.482 100.573 196.477C99.5672 195.473 99.0016 194.111 99 192.69V124.284C99.0016 122.864 99.5672 121.502 100.573 120.497C101.578 119.493 102.941 118.927 104.363 118.926H178.025C179.447 118.927 180.81 119.493 181.816 120.497C182.821 121.502 183.386 122.864 183.388 124.284V192.69C183.386 194.111 182.821 195.473 181.816 196.477C180.81 197.482 179.447 198.047 178.025 198.049Z" fill="#E6E6E6"/>
<path d="M162.522 194.434H107.981C106.559 194.432 105.196 193.867 104.191 192.863C103.185 191.858 102.62 190.496 102.618 189.075V127.902C102.62 126.481 103.185 125.119 104.191 124.114C105.196 123.11 106.559 122.545 107.981 122.543H174.408C175.83 122.545 177.193 123.11 178.198 124.114C179.204 125.119 179.769 126.481 179.771 127.902V177.197C179.766 181.767 177.947 186.148 174.713 189.38C171.479 192.611 167.095 194.429 162.522 194.434Z" fill="white"/>
<path d="M133.536 142.953C133.536 144.511 133.074 146.034 132.208 147.33C131.342 148.626 130.111 149.636 128.671 150.232C127.231 150.829 125.646 150.985 124.117 150.682C122.587 150.378 121.183 149.628 120.08 148.527C118.977 147.425 118.226 146.022 117.921 144.494C117.617 142.966 117.773 141.382 118.369 139.943C118.965 138.503 119.975 137.273 121.271 136.407C122.567 135.541 124.091 135.079 125.651 135.078C126.686 135.077 127.712 135.279 128.669 135.675C129.626 136.07 130.495 136.65 131.228 137.381C131.96 138.113 132.541 138.982 132.937 139.938C133.333 140.894 133.536 141.919 133.536 142.953Z" fill="#046B34"/>
<path d="M138.95 157.164H119.796C118.693 157.164 117.799 158.058 117.799 159.16V160.114C117.799 161.217 118.693 162.11 119.796 162.11H138.95C140.053 162.11 140.948 161.217 140.948 160.114V159.16C140.948 158.058 140.053 157.164 138.95 157.164Z" fill="#3F3D56"/>
<path d="M162.527 167.057H119.861C118.758 167.057 117.863 167.95 117.863 169.053V170.007C117.863 171.109 118.758 172.003 119.861 172.003H162.527C163.631 172.003 164.525 171.109 164.525 170.007V169.053C164.525 167.95 163.631 167.057 162.527 167.057Z" fill="#3F3D56"/>
<path d="M162.527 176.949H119.861C118.758 176.949 117.863 177.843 117.863 178.945V179.899C117.863 181.002 118.758 181.896 119.861 181.896H162.527C163.631 181.896 164.525 181.002 164.525 179.899V178.945C164.525 177.843 163.631 176.949 162.527 176.949Z" fill="#3F3D56"/>
<path d="M125.827 144.095C127.35 144.095 128.585 142.861 128.585 141.338C128.585 139.816 127.35 138.582 125.827 138.582C124.303 138.582 123.068 139.816 123.068 141.338C123.068 142.861 124.303 144.095 125.827 144.095Z" fill="white"/>
<path d="M128.783 145.08H122.872C122.507 145.08 122.156 145.226 121.898 145.484C121.639 145.743 121.494 146.093 121.493 146.458C121.577 147.639 121.762 148.81 122.045 149.959C123.23 150.569 124.551 150.869 125.884 150.83C127.217 150.79 128.518 150.413 129.666 149.734C129.919 148.657 130.085 147.562 130.162 146.458C130.162 146.093 130.017 145.743 129.758 145.484C129.499 145.226 129.149 145.08 128.783 145.08Z" fill="white"/>
<path d="M170.884 135.855C169.854 135.855 168.847 135.55 167.991 134.978C167.134 134.406 166.466 133.593 166.072 132.642C165.678 131.691 165.575 130.644 165.776 129.635C165.977 128.625 166.473 127.698 167.201 126.97C167.93 126.242 168.858 125.746 169.868 125.545C170.879 125.344 171.926 125.448 172.878 125.842C173.829 126.235 174.643 126.903 175.215 127.758C175.788 128.614 176.093 129.621 176.093 130.65C176.093 132.03 175.544 133.354 174.567 134.33C173.591 135.306 172.266 135.855 170.884 135.855Z" fill="#E6E6E6"/>
<path d="M172.701 131.74L171.611 130.651L172.701 129.562C172.797 129.466 172.851 129.335 172.851 129.199C172.851 129.063 172.797 128.932 172.701 128.836C172.604 128.74 172.474 128.686 172.337 128.686C172.201 128.686 172.07 128.74 171.974 128.836L170.884 129.925L169.794 128.836C169.698 128.74 169.567 128.686 169.431 128.686C169.295 128.686 169.164 128.74 169.067 128.836C168.971 128.932 168.917 129.063 168.917 129.199C168.917 129.335 168.971 129.466 169.067 129.562L170.157 130.651L169.067 131.74C168.971 131.837 168.917 131.967 168.917 132.103C168.917 132.24 168.971 132.37 169.067 132.466C169.164 132.563 169.295 132.617 169.431 132.617C169.567 132.617 169.698 132.563 169.794 132.466L170.884 131.377L171.974 132.466C172.022 132.514 172.078 132.552 172.141 132.578C172.203 132.603 172.27 132.617 172.337 132.617C172.405 132.617 172.472 132.603 172.534 132.578C172.596 132.552 172.653 132.514 172.701 132.466C172.748 132.419 172.786 132.362 172.812 132.3C172.838 132.238 172.851 132.171 172.851 132.103C172.851 132.036 172.838 131.969 172.812 131.907C172.786 131.845 172.748 131.788 172.701 131.74Z" fill="white"/>
</svg>
